<?xml version="1.0" encoding="UTF-8" standalone="no"?>
<!DOCTYPE svg PUBLIC "-//W3C//DTD SVG 1.1//EN" "http://www.w3.org/Graphics/SVG/1.1/DTD/svg11.dtd">
<svg width="100%" height="100%" viewBox="0 0 480 135" version="1.1" xmlns="http://www.w3.org/2000/svg" xmlns:xlink="http://www.w3.org/1999/xlink" xml:space="preserve" xmlns:serif="http://www.serif.com/" style="fill-rule:evenodd;clip-rule:evenodd;stroke-linejoin:round;stroke-miterlimit:2;">
    <g transform="matrix(0.617905,0,0,0.617905,-93.6689,-264.09)">
        <g transform="matrix(1.95186,0,0,1.95186,-100.192,-293.958)">
            <path d="M135.758,480.751C133.854,480.751 132.252,480.1 130.95,478.798C129.648,477.496 128.997,475.893 128.997,473.99L128.997,376.484C128.997,374.581 129.648,372.953 130.95,371.601C132.252,370.249 133.854,369.573 135.758,369.573C137.661,369.573 139.288,370.249 140.64,371.601C141.993,372.953 142.669,374.581 142.669,376.484L142.669,437.932L178.426,404.879C179.027,404.379 179.703,403.928 180.454,403.527C181.205,403.127 182.032,402.926 182.933,402.926C185.537,402.926 187.29,403.652 188.192,405.105C189.093,406.557 189.544,408.034 189.544,409.537C189.544,410.138 189.394,410.864 189.093,411.715C188.793,412.567 188.092,413.543 186.99,414.645L165.355,434.026L192.549,470.084C193.55,471.386 194.051,472.738 194.051,474.141C194.051,476.144 193.4,477.746 192.098,478.948C190.796,480.15 189.143,480.751 187.14,480.751C185.037,480.751 183.184,479.8 181.581,477.897L155.74,442.74L142.669,454.609L142.669,473.99C142.669,475.893 141.993,477.496 140.64,478.798C139.288,480.1 137.661,480.751 135.758,480.751Z" style="fill:url(#_Linear1);fill-rule:nonzero;"/>
            <path d="M210.127,480.751C208.224,480.751 206.621,480.1 205.319,478.798C204.017,477.496 203.366,475.893 203.366,473.99L203.366,409.537C203.366,407.534 204.017,405.881 205.319,404.579C206.621,403.277 208.224,402.626 210.127,402.626C212.13,402.626 213.783,403.277 215.085,404.579C216.387,405.881 217.038,407.534 217.038,409.537L217.038,473.99C217.038,475.893 216.387,477.496 215.085,478.798C213.783,480.1 212.13,480.751 210.127,480.751Z" style="fill:url(#_Linear2);fill-rule:nonzero;"/>
            <path d="M264.965,481.502C258.955,481.502 253.171,479.95 247.612,476.845C242.053,473.74 237.496,469.233 233.94,463.323C230.384,457.414 228.607,450.202 228.607,441.688C228.607,433.175 230.384,425.963 233.94,420.054C237.496,414.144 242.053,409.637 247.612,406.532C253.171,403.427 258.955,401.875 264.965,401.875C270.273,401.875 275.031,402.876 279.238,404.879C283.445,406.883 287.251,409.687 290.656,413.293L290.656,376.484C290.656,374.481 291.332,372.828 292.684,371.526C294.037,370.224 295.664,369.573 297.567,369.573C299.47,369.573 301.073,370.224 302.375,371.526C303.677,372.828 304.328,374.481 304.328,376.484L304.328,473.99C304.328,475.893 303.677,477.496 302.375,478.798C301.073,480.1 299.47,480.751 297.567,480.751C295.664,480.751 294.037,480.1 292.684,478.798C291.332,477.496 290.656,475.893 290.656,473.99L290.656,470.084C287.251,473.69 283.445,476.494 279.238,478.498C275.031,480.501 270.273,481.502 264.965,481.502ZM266.918,468.732C271.826,468.732 276.283,467.655 280.29,465.502C284.296,463.348 287.752,460.669 290.656,457.464L290.656,425.913C287.752,422.708 284.296,420.029 280.29,417.875C276.283,415.722 271.826,414.645 266.918,414.645C259.807,414.645 253.922,416.924 249.265,421.481C244.607,426.038 242.279,432.774 242.279,441.688C242.279,450.503 244.607,457.213 249.265,461.821C253.922,466.428 259.807,468.732 266.918,468.732Z" style="fill:url(#_Linear3);fill-rule:nonzero;"/>
            <path d="M343.391,480.751C341.388,480.751 339.585,480.125 337.982,478.873C336.38,477.621 335.278,476.144 334.677,474.441L313.343,411.941C313.042,411.039 312.892,410.188 312.892,409.387C312.892,407.484 313.543,405.881 314.845,404.579C316.147,403.277 317.75,402.626 319.653,402.626C321.055,402.626 322.332,402.976 323.484,403.677C324.636,404.379 325.412,405.38 325.813,406.682L343.391,464.525L360.819,408.034C361.32,406.432 362.246,405.13 363.598,404.128C364.95,403.127 366.478,402.626 368.181,402.626C369.883,402.626 371.436,403.127 372.838,404.128C374.24,405.13 375.142,406.432 375.542,408.034L392.97,464.525L410.549,406.682C410.949,405.38 411.751,404.379 412.953,403.677C414.154,402.976 415.406,402.626 416.709,402.626C418.612,402.626 420.214,403.277 421.516,404.579C422.818,405.881 423.469,407.484 423.469,409.387C423.469,410.188 423.319,411.039 423.019,411.941L401.684,474.441C401.083,476.144 399.982,477.621 398.379,478.873C396.777,480.125 394.974,480.751 392.97,480.751C390.967,480.751 389.164,480.125 387.562,478.873C385.959,477.621 384.807,476.094 384.106,474.291L368.181,424.561L352.255,474.291C351.554,476.094 350.402,477.621 348.8,478.873C347.197,480.125 345.394,480.751 343.391,480.751Z" style="fill:url(#_Linear4);fill-rule:nonzero;"/>
            <path d="M438.794,480.751C436.891,480.751 435.288,480.1 433.986,478.798C432.684,477.496 432.033,475.893 432.033,473.99L432.033,409.537C432.033,407.534 432.684,405.881 433.986,404.579C435.288,403.277 436.891,402.626 438.794,402.626C440.797,402.626 442.45,403.277 443.752,404.579C445.054,405.881 445.705,407.534 445.705,409.537L445.705,473.99C445.705,475.893 445.054,477.496 443.752,478.798C442.45,480.1 440.797,480.751 438.794,480.751Z" style="fill:url(#_Linear5);fill-rule:nonzero;"/>
            <path d="M468.692,480.751C466.789,480.751 465.186,480.1 463.884,478.798C462.582,477.496 461.931,475.893 461.931,473.99L461.931,376.484C461.931,374.581 462.582,372.953 463.884,371.601C465.186,370.249 466.789,369.573 468.692,369.573C470.595,369.573 472.223,370.249 473.575,371.601C474.927,372.953 475.603,374.581 475.603,376.484L475.603,437.932L511.36,404.879C511.961,404.379 512.638,403.928 513.389,403.527C514.14,403.127 514.966,402.926 515.868,402.926C518.472,402.926 520.225,403.652 521.126,405.105C522.028,406.557 522.478,408.034 522.478,409.537C522.478,410.138 522.328,410.864 522.028,411.715C521.727,412.567 521.026,413.543 519.924,414.645L498.29,434.026L525.483,470.084C526.485,471.386 526.986,472.738 526.986,474.141C526.986,476.144 526.335,477.746 525.032,478.948C523.73,480.15 522.078,480.751 520.074,480.751C517.971,480.751 516.118,479.8 514.516,477.897L488.674,442.74L475.603,454.609L475.603,473.99C475.603,475.893 474.927,477.496 473.575,478.798C472.223,480.1 470.595,480.751 468.692,480.751Z" style="fill:url(#_Linear6);fill-rule:nonzero;"/>
        </g>
        <g transform="matrix(1,0,0,1,-1.14662,0.133185)">
            <circle cx="310.239" cy="448.571" r="21.309" style="fill:url(#_Linear7);"/>
        </g>
        <g transform="matrix(1,0,0,1,444.568,0.133185)">
            <circle cx="310.239" cy="448.571" r="21.309" style="fill:url(#_Linear8);"/>
        </g>
    </g>
    <defs>
        <linearGradient id="_Linear1" x1="0" y1="0" x2="1" y2="0" gradientUnits="userSpaceOnUse" gradientTransform="matrix(397.989,-62.4557,62.4557,397.989,128.997,458.979)"><stop offset="0" style="stop-color:rgb(75,186,0);stop-opacity:1"/><stop offset="0.31" style="stop-color:rgb(0,103,86);stop-opacity:1"/><stop offset="1" style="stop-color:rgb(0,186,12);stop-opacity:1"/></linearGradient>
        <linearGradient id="_Linear2" x1="0" y1="0" x2="1" y2="0" gradientUnits="userSpaceOnUse" gradientTransform="matrix(397.989,-62.4557,62.4557,397.989,128.997,458.979)"><stop offset="0" style="stop-color:rgb(75,186,0);stop-opacity:1"/><stop offset="0.31" style="stop-color:rgb(0,103,86);stop-opacity:1"/><stop offset="1" style="stop-color:rgb(0,186,12);stop-opacity:1"/></linearGradient>
        <linearGradient id="_Linear3" x1="0" y1="0" x2="1" y2="0" gradientUnits="userSpaceOnUse" gradientTransform="matrix(397.989,-62.4557,62.4557,397.989,128.997,458.979)"><stop offset="0" style="stop-color:rgb(75,186,0);stop-opacity:1"/><stop offset="0.31" style="stop-color:rgb(0,103,86);stop-opacity:1"/><stop offset="1" style="stop-color:rgb(0,186,12);stop-opacity:1"/></linearGradient>
        <linearGradient id="_Linear4" x1="0" y1="0" x2="1" y2="0" gradientUnits="userSpaceOnUse" gradientTransform="matrix(397.989,-62.4557,62.4557,397.989,128.997,458.979)"><stop offset="0" style="stop-color:rgb(75,186,0);stop-opacity:1"/><stop offset="0.31" style="stop-color:rgb(0,103,86);stop-opacity:1"/><stop offset="1" style="stop-color:rgb(0,186,12);stop-opacity:1"/></linearGradient>
        <linearGradient id="_Linear5" x1="0" y1="0" x2="1" y2="0" gradientUnits="userSpaceOnUse" gradientTransform="matrix(397.989,-62.4557,62.4557,397.989,128.997,458.979)"><stop offset="0" style="stop-color:rgb(75,186,0);stop-opacity:1"/><stop offset="0.31" style="stop-color:rgb(0,103,86);stop-opacity:1"/><stop offset="1" style="stop-color:rgb(0,186,12);stop-opacity:1"/></linearGradient>
        <linearGradient id="_Linear6" x1="0" y1="0" x2="1" y2="0" gradientUnits="userSpaceOnUse" gradientTransform="matrix(397.989,-62.4557,62.4557,397.989,128.997,458.979)"><stop offset="0" style="stop-color:rgb(75,186,0);stop-opacity:1"/><stop offset="0.31" style="stop-color:rgb(0,103,86);stop-opacity:1"/><stop offset="1" style="stop-color:rgb(0,186,12);stop-opacity:1"/></linearGradient>
        <linearGradient id="_Linear7" x1="0" y1="0" x2="1" y2="0" gradientUnits="userSpaceOnUse" gradientTransform="matrix(776.818,-121.905,121.905,776.818,152.738,601.772)"><stop offset="0" style="stop-color:rgb(75,186,0);stop-opacity:1"/><stop offset="0.31" style="stop-color:rgb(0,103,86);stop-opacity:1"/><stop offset="1" style="stop-color:rgb(0,186,12);stop-opacity:1"/></linearGradient>
        <linearGradient id="_Linear8" x1="0" y1="0" x2="1" y2="0" gradientUnits="userSpaceOnUse" gradientTransform="matrix(776.818,-121.905,121.905,776.818,-292.977,601.772)"><stop offset="0" style="stop-color:rgb(75,186,0);stop-opacity:1"/><stop offset="0.31" style="stop-color:rgb(0,103,86);stop-opacity:1"/><stop offset="1" style="stop-color:rgb(0,186,12);stop-opacity:1"/></linearGradient>
    </defs>
</svg>
